<svg xmlns="http://www.w3.org/2000/svg" width="1027.025" height="231" viewBox="0 0 1027.025 231">
  <g id="Group_3" data-name="Group 3" transform="translate(-38.86 -794.976)">
    <g id="tree-evergreen" transform="translate(289.691 794.976)">
      <g id="Union_1" data-name="Union 1" transform="translate(-3.691 -4.934)" fill="none">
        <path d="M8.7,162.959a5,5,0,0,1-4.32-7.516l33.59-57.667H31.784a5,5,0,0,1-4.32-7.517L56.308,40.739H54.87a5,5,0,0,1-4.321-7.516L65.581,7.418a5,5,0,0,1,8.641,0L89.253,33.223a5,5,0,0,1-4.321,7.516h-.149l28.844,49.519a5,5,0,0,1-4.32,7.517h-4.9L138,155.443a5,5,0,0,1-4.32,7.516Z" stroke="none"/>
        <path d="M 133.6806030273438 158.9585113525391 C 134.1585845947266 158.9585113525391 134.4156188964844 158.6858673095703 134.5470733642578 158.4571533203125 C 134.6785736083984 158.2283630371094 134.7848205566406 157.8689727783203 134.5442047119141 157.4558715820312 L 100.9545745849609 99.78836822509766 L 97.45203399658203 93.77510833740234 L 104.4109802246094 93.77510833740234 L 109.3067932128906 93.77510833740234 C 109.7846755981445 93.77510833740234 110.0416946411133 93.50251007080078 110.1731491088867 93.27384948730469 C 110.3047943115234 93.04484558105469 110.4111480712891 92.68501281738281 110.1703872680664 92.27158355712891 L 81.32662963867188 42.75267791748047 L 77.82400512695312 36.73939514160156 L 84.78302764892578 36.73939514160156 L 84.93209838867188 36.73939514160156 C 85.41074371337891 36.73939514160156 85.66800689697266 36.46660614013672 85.79953002929688 36.23777389526367 C 85.93098449707031 36.00908279418945 86.03717041015625 35.64979934692383 85.79657745361328 35.23675155639648 L 70.76572418212891 9.431108474731445 C 70.52662658691406 9.020655632019043 70.16386413574219 8.934489250183105 69.90164947509766 8.934489250183105 C 69.63943481445312 8.934489250183105 69.27667236328125 9.020655632019043 69.03757476806641 9.431132316589355 L 54.00576782226562 35.23686981201172 C 53.76538848876953 35.64955902099609 53.87162780761719 36.00882339477539 54.00307846069336 36.2375373840332 C 54.13467407226562 36.46648788452148 54.39196014404297 36.73939514160156 54.87029266357422 36.73939514160156 L 56.3075065612793 36.73939514160156 L 63.26643371582031 36.73939514160156 L 59.76393508911133 42.75263214111328 L 30.92060279846191 92.27194213867188 C 30.67981719970703 92.68522644042969 30.78600692749023 93.04470062255859 30.91750717163086 93.27349090576172 C 31.04903030395508 93.5023193359375 31.30617332458496 93.77510833740234 31.7844123840332 93.77510833740234 L 37.96812438964844 93.77510833740234 L 44.92707824707031 93.77510833740234 L 41.42453002929688 99.78836822509766 L 7.83445930480957 157.4566345214844 C 7.594054698944092 157.8691864013672 7.700150012969971 158.2282562255859 7.831506729125977 158.4568176269531 C 7.963030815124512 158.6856842041016 8.220197677612305 158.9585113525391 8.698507308959961 158.9585113525391 L 133.6806030273438 158.9585113525391 M 133.6806030273438 162.9585113525391 L 8.698507308959961 162.9585113525391 C 4.841102123260498 162.9585113525391 2.43631649017334 158.7752990722656 4.378507137298584 155.4426116943359 L 37.96812438964844 97.77510833740234 L 31.7844123840332 97.77510833740234 C 27.9270076751709 97.77510833740234 25.52219772338867 93.59189605712891 27.46441078186035 90.25830078125 L 56.3075065612793 40.73939514160156 L 54.87029266357422 40.73939514160156 C 51.01291275024414 40.73939514160156 48.60810089111328 36.55620193481445 50.54941177368164 33.22351455688477 L 65.58119964599609 7.417798519134521 C 66.54555511474609 5.762250900268555 68.22360992431641 4.934476852416992 69.90165710449219 4.934476852416992 C 71.5797119140625 4.934476852416992 73.25775909423828 5.762250900268555 74.22209930419922 7.417798519134521 L 89.25300598144531 33.22351455688477 C 91.19431304931641 36.55620193481445 88.79041290283203 40.73939514160156 84.93209838867188 40.73939514160156 L 84.78302764892578 40.73939514160156 L 113.6267929077148 90.25830078125 C 115.5680999755859 93.59189605712891 113.1641998291016 97.77510833740234 109.3067932128906 97.77510833740234 L 104.4109802246094 97.77510833740234 L 138.0005950927734 155.4426116943359 C 139.9419097900391 158.7752990722656 137.5380096435547 162.9585113525391 133.6806030273438 162.9585113525391 Z" stroke="none" fill="#422e44"/>
      </g>
      <path id="Path_4" data-name="Path 4" d="M752.6-242.7s23.787-6.249,59.729,0" transform="translate(-714.691 334.024)" fill="none" stroke="#422e44" stroke-width="4"/>
      <path id="Path_5" data-name="Path 5" d="M752.6-242.7s10.177-6.249,25.556,0" transform="translate(-698.042 277.024)" fill="none" stroke="#422e44" stroke-width="4"/>
      <g id="Rectangle_10" data-name="Rectangle 10" transform="translate(49.309 155.024)" fill="none" stroke="#422e44" stroke-width="4">
        <rect width="36" height="74" stroke="none"/>
        <rect x="2" y="2" width="32" height="70" fill="none"/>
      </g>
    </g>
    <path id="Path_989" data-name="Path 989" d="M638.211-138.766s144.672,25.75,544.508,0,420.1,24.828,481.977,30.75" transform="translate(-599 1132)" fill="none" stroke="#422e44" stroke-width="4"/>
  </g>
</svg>
